<svg xmlns="http://www.w3.org/2000/svg" viewBox="0 0 100 125" x="0px" y="0px"><title>Shopping Morning</title><g data-name="Capa 2"><path d="M59.05,45.73a1.75,1.75,0,0,1-1.22-.5,11.48,11.48,0,0,0-8.2-3.4,1.72,1.72,0,0,1,0-3.44,15,15,0,0,1,10.64,4.4,1.73,1.73,0,0,1,0,2.44A1.75,1.75,0,0,1,59.05,45.73Z"/><rect x="41.44" y="73.07" width="17.24" height="3.9"/><rect x="41.44" y="79.07" width="17.24" height="3.9"/><path d="M50,90.53A11.17,11.17,0,0,1,38.84,79.36V76.43c0-2.79-1.47-5.67-4.5-8.78a21.82,21.82,0,1,1,31.32,0c-3,3.11-4.49,6-4.49,8.78v2.93A11.18,11.18,0,0,1,50,90.53Zm0-56A17.91,17.91,0,0,0,37.14,64.93c3.77,3.88,5.6,7.64,5.6,11.5v2.93a7.26,7.26,0,1,0,14.52,0V76.43c0-3.86,1.83-7.62,5.6-11.5A17.91,17.91,0,0,0,50,34.56Z"/><path d="M21.12,83.09a1.93,1.93,0,0,1-1.38-.58,2,2,0,0,1,0-2.76L27.9,71.6a2,2,0,1,1,2.76,2.76L22.5,82.51A1.92,1.92,0,0,1,21.12,83.09Z"/><path d="M20.69,54.21H9.16a2,2,0,0,1,0-3.9H20.69a2,2,0,1,1,0,3.9Z"/><path d="M29.28,33.49a2,2,0,0,1-1.38-.57l-8.16-8.16A2,2,0,0,1,22.5,22l8.16,8.16a2,2,0,0,1-1.38,3.33Z"/><path d="M50,24.91a2,2,0,0,1-2-1.95V11.42a2,2,0,0,1,3.9,0V23A2,2,0,0,1,50,24.91Z"/><path d="M70.72,33.49a2,2,0,0,1-1.38-3.33L77.5,22a2,2,0,0,1,2.76,2.76L72.1,32.92A2,2,0,0,1,70.72,33.49Z"/><path d="M90.84,54.21H79.31a2,2,0,0,1,0-3.9H90.84a2,2,0,1,1,0,3.9Z"/><path d="M78.88,83.09a1.92,1.92,0,0,1-1.38-.58l-8.16-8.15A2,2,0,1,1,72.1,71.6l8.16,8.15a2,2,0,0,1,0,2.76A1.93,1.93,0,0,1,78.88,83.09Z"/></g></svg>